<svg width="353" height="75" viewBox="0 0 353 75" fill="none" xmlns="http://www.w3.org/2000/svg">
<path d="M51.2539 20.1562H52.6602V52.5H51.2539V20.1562ZM20.3164 20.1562H21.7227V52.5H20.3164V20.1562ZM48.4414 20.1562H49.8477V52.5H48.4414V20.1562ZM45.6289 20.1562H47.0352V52.5H45.6289V20.1562ZM42.8164 20.1562H44.2227V52.5H42.8164V39.8242H30.1602V52.5H28.7539V20.1562H30.1602V32.793H42.8164V20.1562ZM25.9414 20.1562H27.3477V52.5H25.9414V20.1562ZM23.1289 20.1562H24.5352V52.5H23.1289V20.1562ZM42.8164 38.418V37.0117H30.1602V38.418H42.8164ZM42.8164 35.6055V34.1992H30.1602V35.6055H42.8164ZM63.4023 52.5H61.9961V24.375H63.4023V52.5ZM60.5898 52.5H59.1836V24.375H60.5898V52.5ZM57.7773 52.5H56.3711V24.375H57.7773V52.5ZM66.2148 45.4688H79.6719V46.875H66.2148V48.2812H79.6719V49.6875H66.2148V51.0938H79.6719V52.5H64.8086V24.375H79.6719V25.7812H66.2148V27.1875H79.6719V28.5938H66.2148V30H79.6719V31.4062H66.2148V34.9023H78.8906V36.3086H66.2148V37.7148H78.8906V39.1211H66.2148V40.5273H78.8906V41.9336H66.2148V45.4688ZM95.9805 39.1211H93.7539C91.0195 39.1211 88.9167 38.5677 87.4453 37.4609C85.974 36.3411 85.2383 34.8047 85.2383 32.8516C85.2383 31.0286 86.1042 29.5117 87.8359 28.3008C89.5677 27.0768 91.9961 26.4648 95.1211 26.4648C97.2044 26.4648 99.1445 26.7513 100.941 27.3242C102.751 27.8971 104.255 28.7044 105.453 29.7461L104.359 30.625C103.292 29.7526 101.951 29.0755 100.336 28.5938C98.7214 28.112 96.9831 27.8711 95.1211 27.8711C92.3737 27.8711 90.2708 28.3398 88.8125 29.2773C87.3672 30.2148 86.6445 31.4062 86.6445 32.8516C86.6445 34.4141 87.237 35.6185 88.4219 36.4648C89.6198 37.2982 91.3971 37.7148 93.7539 37.7148H95.9023C98.6758 37.7148 100.798 38.2747 102.27 39.3945C103.754 40.5013 104.496 42.0312 104.496 43.9844C104.496 45.8073 103.63 47.3307 101.898 48.5547C100.167 49.7656 97.7383 50.3711 94.6133 50.3711C92.5299 50.3711 90.5833 50.0846 88.7734 49.5117C86.9766 48.9388 85.4792 48.1315 84.2812 47.0898L85.375 46.2109C86.4427 47.0833 87.7839 47.7604 89.3984 48.2422C91.013 48.724 92.7513 48.9648 94.6133 48.9648C97.3607 48.9648 99.457 48.4961 100.902 47.5586C102.361 46.6211 103.09 45.4297 103.09 43.9844C103.09 42.4219 102.491 41.224 101.293 40.3906C100.108 39.5443 98.3372 39.1211 95.9805 39.1211ZM95.9805 41.9336H93.7539C90.1341 41.9336 87.3411 41.1133 85.375 39.4727C83.4089 37.819 82.4258 35.612 82.4258 32.8516C82.4258 31.5885 82.7057 30.4036 83.2656 29.2969C83.8255 28.1901 84.6263 27.2201 85.668 26.3867C86.7227 25.5404 88.0638 24.8763 89.6914 24.3945C91.319 23.8997 93.1289 23.6523 95.1211 23.6523C97.6341 23.6523 99.9844 24.0365 102.172 24.8047C104.359 25.5599 106.182 26.6211 107.641 27.9883L106.508 28.8281C105.18 27.6302 103.52 26.7057 101.527 26.0547C99.5352 25.3906 97.3997 25.0586 95.1211 25.0586C91.6055 25.0586 88.8451 25.8008 86.8398 27.2852C84.8346 28.7695 83.832 30.625 83.832 32.8516C83.832 35.2083 84.6914 37.0768 86.4102 38.457C88.1289 39.8372 90.5768 40.5273 93.7539 40.5273H95.9023C99.7565 40.5273 101.684 41.6797 101.684 43.9844C101.684 45.026 101.091 45.8854 99.9062 46.5625C98.7344 47.2266 96.9701 47.5586 94.6133 47.5586C92.9596 47.5586 91.4232 47.3698 90.0039 46.9922C88.5846 46.6016 87.4128 46.0482 86.4883 45.332L87.6016 44.4727C89.2292 45.5924 91.5664 46.1523 94.6133 46.1523C96.5664 46.1523 97.9987 45.9505 98.9102 45.5469C99.8216 45.1432 100.277 44.6224 100.277 43.9844C100.277 43.2422 99.9583 42.7148 99.3203 42.4023C98.6823 42.0898 97.569 41.9336 95.9805 41.9336ZM95.9805 36.3086H93.7539C89.9518 36.3086 88.0508 35.1562 88.0508 32.8516C88.0508 31.8099 88.6367 30.957 89.8086 30.293C90.9935 29.6159 92.7643 29.2773 95.1211 29.2773C96.7747 29.2773 98.3112 29.4727 99.7305 29.8633C101.15 30.2409 102.322 30.7878 103.246 31.5039L102.133 32.3633C100.505 31.2435 98.168 30.6836 95.1211 30.6836C93.168 30.6836 91.7357 30.8854 90.8242 31.2891C89.9128 31.6927 89.457 32.2135 89.457 32.8516C89.457 33.5938 89.776 34.1211 90.4141 34.4336C91.0521 34.7461 92.1654 34.9023 93.7539 34.9023H95.9805C99.6003 34.9023 102.393 35.7292 104.359 37.3828C106.326 39.0234 107.309 41.224 107.309 43.9844C107.309 45.2474 107.029 46.4323 106.469 47.5391C105.909 48.6458 105.102 49.6224 104.047 50.4688C103.005 51.3021 101.671 51.9661 100.043 52.4609C98.4154 52.9427 96.6055 53.1836 94.6133 53.1836C92.1003 53.1836 89.75 52.806 87.5625 52.0508C85.375 51.2826 83.5521 50.2148 82.0938 48.8477L83.2266 48.0078C84.5547 49.2057 86.2148 50.1367 88.207 50.8008C90.1992 51.4518 92.3346 51.7773 94.6133 51.7773C98.1289 51.7773 100.889 51.0352 102.895 49.5508C104.9 48.0664 105.902 46.2109 105.902 43.9844C105.902 41.6276 105.043 39.7591 103.324 38.3789C101.605 36.9987 99.1576 36.3086 95.9805 36.3086ZM123.324 39.1211H121.098C118.363 39.1211 116.26 38.5677 114.789 37.4609C113.318 36.3411 112.582 34.8047 112.582 32.8516C112.582 31.0286 113.448 29.5117 115.18 28.3008C116.911 27.0768 119.34 26.4648 122.465 26.4648C124.548 26.4648 126.488 26.7513 128.285 27.3242C130.095 27.8971 131.599 28.7044 132.797 29.7461L131.703 30.625C130.635 29.7526 129.294 29.0755 127.68 28.5938C126.065 28.112 124.327 27.8711 122.465 27.8711C119.717 27.8711 117.615 28.3398 116.156 29.2773C114.711 30.2148 113.988 31.4062 113.988 32.8516C113.988 34.4141 114.581 35.6185 115.766 36.4648C116.964 37.2982 118.741 37.7148 121.098 37.7148H123.246C126.02 37.7148 128.142 38.2747 129.613 39.3945C131.098 40.5013 131.84 42.0312 131.84 43.9844C131.84 45.8073 130.974 47.3307 129.242 48.5547C127.51 49.7656 125.082 50.3711 121.957 50.3711C119.874 50.3711 117.927 50.0846 116.117 49.5117C114.32 48.9388 112.823 48.1315 111.625 47.0898L112.719 46.2109C113.786 47.0833 115.128 47.7604 116.742 48.2422C118.357 48.724 120.095 48.9648 121.957 48.9648C124.704 48.9648 126.801 48.4961 128.246 47.5586C129.704 46.6211 130.434 45.4297 130.434 43.9844C130.434 42.4219 129.835 41.224 128.637 40.3906C127.452 39.5443 125.681 39.1211 123.324 39.1211ZM123.324 41.9336H121.098C117.478 41.9336 114.685 41.1133 112.719 39.4727C110.753 37.819 109.77 35.612 109.77 32.8516C109.77 31.5885 110.049 30.4036 110.609 29.2969C111.169 28.1901 111.97 27.2201 113.012 26.3867C114.066 25.5404 115.408 24.8763 117.035 24.3945C118.663 23.8997 120.473 23.6523 122.465 23.6523C124.978 23.6523 127.328 24.0365 129.516 24.8047C131.703 25.5599 133.526 26.6211 134.984 27.9883L133.852 28.8281C132.523 27.6302 130.863 26.7057 128.871 26.0547C126.879 25.3906 124.743 25.0586 122.465 25.0586C118.949 25.0586 116.189 25.8008 114.184 27.2852C112.178 28.7695 111.176 30.625 111.176 32.8516C111.176 35.2083 112.035 37.0768 113.754 38.457C115.473 39.8372 117.921 40.5273 121.098 40.5273H123.246C127.1 40.5273 129.027 41.6797 129.027 43.9844C129.027 45.026 128.435 45.8854 127.25 46.5625C126.078 47.2266 124.314 47.5586 121.957 47.5586C120.303 47.5586 118.767 47.3698 117.348 46.9922C115.928 46.6016 114.757 46.0482 113.832 45.332L114.945 44.4727C116.573 45.5924 118.91 46.1523 121.957 46.1523C123.91 46.1523 125.342 45.9505 126.254 45.5469C127.165 45.1432 127.621 44.6224 127.621 43.9844C127.621 43.2422 127.302 42.7148 126.664 42.4023C126.026 42.0898 124.913 41.9336 123.324 41.9336ZM123.324 36.3086H121.098C117.296 36.3086 115.395 35.1562 115.395 32.8516C115.395 31.8099 115.98 30.957 117.152 30.293C118.337 29.6159 120.108 29.2773 122.465 29.2773C124.118 29.2773 125.655 29.4727 127.074 29.8633C128.493 30.2409 129.665 30.7878 130.59 31.5039L129.477 32.3633C127.849 31.2435 125.512 30.6836 122.465 30.6836C120.512 30.6836 119.079 30.8854 118.168 31.2891C117.257 31.6927 116.801 32.2135 116.801 32.8516C116.801 33.5938 117.12 34.1211 117.758 34.4336C118.396 34.7461 119.509 34.9023 121.098 34.9023H123.324C126.944 34.9023 129.737 35.7292 131.703 37.3828C133.669 39.0234 134.652 41.224 134.652 43.9844C134.652 45.2474 134.372 46.4323 133.812 47.5391C133.253 48.6458 132.445 49.6224 131.391 50.4688C130.349 51.3021 129.014 51.9661 127.387 52.4609C125.759 52.9427 123.949 53.1836 121.957 53.1836C119.444 53.1836 117.094 52.806 114.906 52.0508C112.719 51.2826 110.896 50.2148 109.438 48.8477L110.57 48.0078C111.898 49.2057 113.559 50.1367 115.551 50.8008C117.543 51.4518 119.678 51.7773 121.957 51.7773C125.473 51.7773 128.233 51.0352 130.238 49.5508C132.243 48.0664 133.246 46.2109 133.246 43.9844C133.246 41.6276 132.387 39.7591 130.668 38.3789C128.949 36.9987 126.501 36.3086 123.324 36.3086ZM157.699 38.6328C157.699 36.9661 157.185 35.6771 156.156 34.7656C155.128 33.8542 153.767 33.3984 152.074 33.3984C150.642 33.3984 149.411 33.8932 148.383 34.8828C147.354 35.8724 146.84 37.0573 146.84 38.4375C146.84 39.2188 146.944 39.9219 147.152 40.5469C147.361 41.1589 147.641 41.6732 147.992 42.0898C148.357 42.4935 148.786 42.832 149.281 43.1055C149.776 43.3659 150.29 43.5547 150.824 43.6719C151.371 43.7891 151.951 43.8477 152.562 43.8477C154.047 43.8477 155.401 43.4831 156.625 42.7539V44.1602C155.362 44.8242 154.001 45.1562 152.543 45.1562C151.605 45.1562 150.72 45.0326 149.887 44.7852C149.066 44.5247 148.318 44.1406 147.641 43.6328C146.964 43.112 146.423 42.4089 146.02 41.5234C145.629 40.625 145.434 39.5964 145.434 38.4375C145.434 36.6406 146.065 35.1172 147.328 33.8672C148.591 32.6172 150.173 31.9922 152.074 31.9922C154.171 31.9922 155.863 32.5846 157.152 33.7695C158.454 34.9414 159.105 36.5625 159.105 38.6328V52.5H157.699V38.6328ZM161.918 38.6328V52.5H160.512V38.6328C160.512 36.1719 159.724 34.2188 158.148 32.7734C156.573 31.3151 154.548 30.5859 152.074 30.5859C149.783 30.5859 147.868 31.3477 146.332 32.8711C144.796 34.3945 144.027 36.25 144.027 38.4375C144.027 39.7656 144.255 40.957 144.711 42.0117C145.18 43.0664 145.811 43.9128 146.605 44.5508C147.4 45.1888 148.285 45.6771 149.262 46.0156C150.251 46.3411 151.293 46.5039 152.387 46.5039C153.871 46.5039 155.284 46.1589 156.625 45.4688V46.9531C155.219 47.5391 153.799 47.832 152.367 47.832C151.078 47.832 149.854 47.6367 148.695 47.2461C147.536 46.8424 146.501 46.263 145.59 45.5078C144.678 44.7396 143.956 43.75 143.422 42.5391C142.888 41.3151 142.621 39.9479 142.621 38.4375C142.621 35.8724 143.526 33.6914 145.336 31.8945C147.159 30.0846 149.405 29.1797 152.074 29.1797C153.949 29.1797 155.629 29.5638 157.113 30.332C158.598 31.0872 159.77 32.1875 160.629 33.6328C161.488 35.0781 161.918 36.7448 161.918 38.6328ZM164.73 38.6328V52.5H163.324V38.6328C163.324 36.4844 162.829 34.5833 161.84 32.9297C160.863 31.263 159.522 29.987 157.816 29.1016C156.111 28.2161 154.197 27.7734 152.074 27.7734C150.056 27.7734 148.214 28.2552 146.547 29.2188C144.88 30.1693 143.572 31.4583 142.621 33.0859C141.684 34.7135 141.215 36.4974 141.215 38.4375C141.215 40.1042 141.521 41.6276 142.133 43.0078C142.745 44.375 143.565 45.5013 144.594 46.3867C145.635 47.2721 146.814 47.9622 148.129 48.457C149.457 48.9388 150.844 49.1797 152.289 49.1797C153.76 49.1797 155.206 48.8737 156.625 48.2617V49.6875C155.141 50.2474 153.682 50.5273 152.25 50.5273C149.997 50.5273 147.927 50.0195 146.039 49.0039C144.151 47.9883 142.641 46.5495 141.508 44.6875C140.375 42.8255 139.809 40.7422 139.809 38.4375C139.809 36.7969 140.121 35.2344 140.746 33.75C141.384 32.2656 142.243 30.9831 143.324 29.9023C144.405 28.8216 145.707 27.9622 147.23 27.3242C148.754 26.6862 150.368 26.3672 152.074 26.3672C154.457 26.3672 156.605 26.875 158.52 27.8906C160.447 28.9062 161.964 30.3516 163.07 32.2266C164.177 34.1016 164.73 36.237 164.73 38.6328ZM167.543 38.6328V52.5H166.137V38.6328C166.137 35.9766 165.518 33.6068 164.281 31.5234C163.044 29.4271 161.358 27.8125 159.223 26.6797C157.087 25.5339 154.704 24.9609 152.074 24.9609C149.548 24.9609 147.237 25.5664 145.141 26.7773C143.044 27.9883 141.397 29.6289 140.199 31.6992C139.001 33.7565 138.402 36.0026 138.402 38.4375C138.402 40.0391 138.656 41.5625 139.164 43.0078C139.685 44.4401 140.388 45.6966 141.273 46.7773C142.172 47.8451 143.201 48.7695 144.359 49.5508C145.531 50.332 146.788 50.9245 148.129 51.3281C149.483 51.7318 150.857 51.9336 152.25 51.9336C153.786 51.9336 155.245 51.6406 156.625 51.0547V52.5C155.18 53.0078 153.695 53.2617 152.172 53.2617C150.596 53.2617 149.06 53.0404 147.562 52.5977C146.078 52.1549 144.698 51.5039 143.422 50.6445C142.159 49.7721 141.046 48.75 140.082 47.5781C139.118 46.3932 138.363 45.013 137.816 43.4375C137.27 41.862 136.996 40.1953 136.996 38.4375C136.996 36.4193 137.374 34.4987 138.129 32.6758C138.897 30.8398 139.939 29.2578 141.254 27.9297C142.582 26.5885 144.184 25.5273 146.059 24.7461C147.947 23.9518 149.952 23.5547 152.074 23.5547C154.236 23.5547 156.267 23.9193 158.168 24.6484C160.069 25.3776 161.71 26.3932 163.09 27.6953C164.47 28.9844 165.557 30.5729 166.352 32.4609C167.146 34.349 167.543 36.4062 167.543 38.6328ZM193.051 38.2812C193.038 38.2812 193.031 38.2878 193.031 38.3008C193.656 38.9388 194.177 39.7266 194.594 40.6641C195.01 41.6016 195.219 42.5521 195.219 43.5156C195.219 45.612 194.496 47.3763 193.051 48.8086C191.618 50.2279 189.9 50.9375 187.895 50.9375H179.008V52.3438H187.895C189.483 52.3438 190.928 51.9987 192.23 51.3086C193.546 50.6185 194.607 49.5964 195.414 48.2422C196.221 46.875 196.625 45.2995 196.625 43.5156C196.625 41.6536 196.065 39.9479 194.945 38.3984C196.065 36.901 196.625 35.1107 196.625 33.0273C196.625 31.5039 196.228 30.0781 195.434 28.75C194.639 27.4089 193.565 26.3477 192.211 25.5664C190.87 24.7721 189.431 24.375 187.895 24.375H171.02V52.5H172.426V25.7812H187.895C189.874 25.7812 191.586 26.5039 193.031 27.9492C194.49 29.3815 195.219 31.0742 195.219 33.0273C195.219 35.0846 194.483 36.8294 193.012 38.2617L193.051 38.2812ZM187.895 45.3125C188.376 45.3125 188.78 45.1562 189.105 44.8438C189.431 44.5312 189.594 44.0885 189.594 43.5156C189.594 43.0469 189.418 42.6302 189.066 42.2656C188.728 41.901 188.337 41.7188 187.895 41.7188H178.988V40.3125H187.895C188.715 40.3125 189.438 40.638 190.062 41.2891C190.688 41.9271 191 42.6693 191 43.5156C191 44.4922 190.694 45.2734 190.082 45.8594C189.483 46.4323 188.754 46.7188 187.895 46.7188H179.008V45.3125H187.895ZM187.895 48.125C189.132 48.125 190.193 47.6953 191.078 46.8359C191.964 45.9766 192.406 44.8698 192.406 43.5156C192.406 42.2917 191.951 41.2174 191.039 40.293C190.141 39.3685 189.092 38.9062 187.895 38.9062H183.598H179.008V37.5H183.598H187.895C189.132 37.5 190.193 37.0833 191.078 36.25C191.964 35.4036 192.406 34.3294 192.406 33.0273C192.406 31.8555 191.951 30.8268 191.039 29.9414C190.141 29.043 189.092 28.5938 187.895 28.5938H175.238V52.5H173.832V27.1875H187.895C189.483 27.1875 190.863 27.7734 192.035 28.9453C193.22 30.1042 193.812 31.4648 193.812 33.0273C193.812 34.1732 193.52 35.2083 192.934 36.1328C192.361 37.0443 191.599 37.7474 190.648 38.2422C191.599 38.763 192.361 39.5052 192.934 40.4688C193.52 41.4193 193.812 42.4349 193.812 43.5156C193.812 45.2214 193.227 46.6536 192.055 47.8125C190.896 48.9583 189.509 49.5312 187.895 49.5312H179.008V48.125H187.895ZM187.895 34.6875C188.376 34.6875 188.78 34.5443 189.105 34.2578C189.431 33.9714 189.594 33.5612 189.594 33.0273C189.594 32.6107 189.418 32.2396 189.066 31.9141C188.728 31.5755 188.337 31.4062 187.895 31.4062H178.051V52.5H176.645V30H187.895C188.715 30 189.438 30.306 190.062 30.918C190.688 31.5299 191 32.2331 191 33.0273C191 33.9648 190.701 34.7135 190.102 35.2734C189.503 35.8203 188.767 36.0938 187.895 36.0938H179.008V34.6875H187.895ZM215.004 36.2305L214.301 37.7734L205.863 20.1562H207.27L215.004 36.2305ZM216.41 33.1445L215.688 34.6875L208.676 20.1562H210.082L216.41 33.1445ZM217.816 30.0781L217.113 31.6211L211.488 20.1562H212.895L217.816 30.0781ZM216.039 41.6016L226.215 20.1562H227.621L217.445 41.6016V52.5H216.039V41.6016ZM218.852 41.6016L229.027 20.1562H230.434L220.258 41.6016V52.5H218.852V41.6016ZM221.664 41.6016L231.84 20.1562H233.246L223.07 41.6016V52.5H221.664V41.6016ZM213.93 40.1172L223.402 20.1562H224.809L214.633 41.6016V52.5H213.227V41.6016L203.051 20.1562H204.457L213.93 40.1172ZM255.707 38.6328C255.707 36.9661 255.193 35.6771 254.164 34.7656C253.135 33.8542 251.775 33.3984 250.082 33.3984C248.65 33.3984 247.419 33.8932 246.391 34.8828C245.362 35.8724 244.848 37.0573 244.848 38.4375C244.848 39.2188 244.952 39.9219 245.16 40.5469C245.368 41.1589 245.648 41.6732 246 42.0898C246.365 42.4935 246.794 42.832 247.289 43.1055C247.784 43.3659 248.298 43.5547 248.832 43.6719C249.379 43.7891 249.958 43.8477 250.57 43.8477C252.055 43.8477 253.409 43.4831 254.633 42.7539V44.1602C253.37 44.8242 252.009 45.1562 250.551 45.1562C249.613 45.1562 248.728 45.0326 247.895 44.7852C247.074 44.5247 246.326 44.1406 245.648 43.6328C244.971 43.112 244.431 42.4089 244.027 41.5234C243.637 40.625 243.441 39.5964 243.441 38.4375C243.441 36.6406 244.073 35.1172 245.336 33.8672C246.599 32.6172 248.181 31.9922 250.082 31.9922C252.178 31.9922 253.871 32.5846 255.16 33.7695C256.462 34.9414 257.113 36.5625 257.113 38.6328V52.5H255.707V38.6328ZM259.926 38.6328V52.5H258.52V38.6328C258.52 36.1719 257.732 34.2188 256.156 32.7734C254.581 31.3151 252.556 30.5859 250.082 30.5859C247.79 30.5859 245.876 31.3477 244.34 32.8711C242.803 34.3945 242.035 36.25 242.035 38.4375C242.035 39.7656 242.263 40.957 242.719 42.0117C243.188 43.0664 243.819 43.9128 244.613 44.5508C245.408 45.1888 246.293 45.6771 247.27 46.0156C248.259 46.3411 249.301 46.5039 250.395 46.5039C251.879 46.5039 253.292 46.1589 254.633 45.4688V46.9531C253.227 47.5391 251.807 47.832 250.375 47.832C249.086 47.832 247.862 47.6367 246.703 47.2461C245.544 46.8424 244.509 46.263 243.598 45.5078C242.686 44.7396 241.964 43.75 241.43 42.5391C240.896 41.3151 240.629 39.9479 240.629 38.4375C240.629 35.8724 241.534 33.6914 243.344 31.8945C245.167 30.0846 247.413 29.1797 250.082 29.1797C251.957 29.1797 253.637 29.5638 255.121 30.332C256.605 31.0872 257.777 32.1875 258.637 33.6328C259.496 35.0781 259.926 36.7448 259.926 38.6328ZM262.738 38.6328V52.5H261.332V38.6328C261.332 36.4844 260.837 34.5833 259.848 32.9297C258.871 31.263 257.53 29.987 255.824 29.1016C254.118 28.2161 252.204 27.7734 250.082 27.7734C248.064 27.7734 246.221 28.2552 244.555 29.2188C242.888 30.1693 241.579 31.4583 240.629 33.0859C239.691 34.7135 239.223 36.4974 239.223 38.4375C239.223 40.1042 239.529 41.6276 240.141 43.0078C240.753 44.375 241.573 45.5013 242.602 46.3867C243.643 47.2721 244.822 47.9622 246.137 48.457C247.465 48.9388 248.852 49.1797 250.297 49.1797C251.768 49.1797 253.214 48.8737 254.633 48.2617V49.6875C253.148 50.2474 251.69 50.5273 250.258 50.5273C248.005 50.5273 245.935 50.0195 244.047 49.0039C242.159 47.9883 240.648 46.5495 239.516 44.6875C238.383 42.8255 237.816 40.7422 237.816 38.4375C237.816 36.7969 238.129 35.2344 238.754 33.75C239.392 32.2656 240.251 30.9831 241.332 29.9023C242.413 28.8216 243.715 27.9622 245.238 27.3242C246.762 26.6862 248.376 26.3672 250.082 26.3672C252.465 26.3672 254.613 26.875 256.527 27.8906C258.454 28.9062 259.971 30.3516 261.078 32.2266C262.185 34.1016 262.738 36.237 262.738 38.6328ZM265.551 38.6328V52.5H264.145V38.6328C264.145 35.9766 263.526 33.6068 262.289 31.5234C261.052 29.4271 259.366 27.8125 257.23 26.6797C255.095 25.5339 252.712 24.9609 250.082 24.9609C247.556 24.9609 245.245 25.5664 243.148 26.7773C241.052 27.9883 239.405 29.6289 238.207 31.6992C237.009 33.7565 236.41 36.0026 236.41 38.4375C236.41 40.0391 236.664 41.5625 237.172 43.0078C237.693 44.4401 238.396 45.6966 239.281 46.7773C240.18 47.8451 241.208 48.7695 242.367 49.5508C243.539 50.332 244.796 50.9245 246.137 51.3281C247.491 51.7318 248.865 51.9336 250.258 51.9336C251.794 51.9336 253.253 51.6406 254.633 51.0547V52.5C253.188 53.0078 251.703 53.2617 250.18 53.2617C248.604 53.2617 247.068 53.0404 245.57 52.5977C244.086 52.1549 242.706 51.5039 241.43 50.6445C240.167 49.7721 239.053 48.75 238.09 47.5781C237.126 46.3932 236.371 45.013 235.824 43.4375C235.277 41.862 235.004 40.1953 235.004 38.4375C235.004 36.4193 235.382 34.4987 236.137 32.6758C236.905 30.8398 237.947 29.2578 239.262 27.9297C240.59 26.5885 242.191 25.5273 244.066 24.7461C245.954 23.9518 247.96 23.5547 250.082 23.5547C252.243 23.5547 254.275 23.9193 256.176 24.6484C258.077 25.3776 259.717 26.3932 261.098 27.6953C262.478 28.9844 263.565 30.5729 264.359 32.4609C265.154 34.349 265.551 36.4062 265.551 38.6328ZM288.988 38.6328C288.988 36.9661 288.474 35.6771 287.445 34.7656C286.417 33.8542 285.056 33.3984 283.363 33.3984C281.931 33.3984 280.701 33.8932 279.672 34.8828C278.643 35.8724 278.129 37.0573 278.129 38.4375C278.129 39.2188 278.233 39.9219 278.441 40.5469C278.65 41.1589 278.93 41.6732 279.281 42.0898C279.646 42.4935 280.076 42.832 280.57 43.1055C281.065 43.3659 281.579 43.5547 282.113 43.6719C282.66 43.7891 283.24 43.8477 283.852 43.8477C285.336 43.8477 286.69 43.4831 287.914 42.7539V44.1602C286.651 44.8242 285.29 45.1562 283.832 45.1562C282.895 45.1562 282.009 45.0326 281.176 44.7852C280.355 44.5247 279.607 44.1406 278.93 43.6328C278.253 43.112 277.712 42.4089 277.309 41.5234C276.918 40.625 276.723 39.5964 276.723 38.4375C276.723 36.6406 277.354 35.1172 278.617 33.8672C279.88 32.6172 281.462 31.9922 283.363 31.9922C285.46 31.9922 287.152 32.5846 288.441 33.7695C289.743 34.9414 290.395 36.5625 290.395 38.6328V52.5H288.988V38.6328ZM293.207 38.6328V52.5H291.801V38.6328C291.801 36.1719 291.013 34.2188 289.438 32.7734C287.862 31.3151 285.837 30.5859 283.363 30.5859C281.072 30.5859 279.158 31.3477 277.621 32.8711C276.085 34.3945 275.316 36.25 275.316 38.4375C275.316 39.7656 275.544 40.957 276 42.0117C276.469 43.0664 277.1 43.9128 277.895 44.5508C278.689 45.1888 279.574 45.6771 280.551 46.0156C281.54 46.3411 282.582 46.5039 283.676 46.5039C285.16 46.5039 286.573 46.1589 287.914 45.4688V46.9531C286.508 47.5391 285.089 47.832 283.656 47.832C282.367 47.832 281.143 47.6367 279.984 47.2461C278.826 46.8424 277.79 46.263 276.879 45.5078C275.967 44.7396 275.245 43.75 274.711 42.5391C274.177 41.3151 273.91 39.9479 273.91 38.4375C273.91 35.8724 274.815 33.6914 276.625 31.8945C278.448 30.0846 280.694 29.1797 283.363 29.1797C285.238 29.1797 286.918 29.5638 288.402 30.332C289.887 31.0872 291.059 32.1875 291.918 33.6328C292.777 35.0781 293.207 36.7448 293.207 38.6328ZM296.02 38.6328V52.5H294.613V38.6328C294.613 36.4844 294.118 34.5833 293.129 32.9297C292.152 31.263 290.811 29.987 289.105 29.1016C287.4 28.2161 285.486 27.7734 283.363 27.7734C281.345 27.7734 279.503 28.2552 277.836 29.2188C276.169 30.1693 274.861 31.4583 273.91 33.0859C272.973 34.7135 272.504 36.4974 272.504 38.4375C272.504 40.1042 272.81 41.6276 273.422 43.0078C274.034 44.375 274.854 45.5013 275.883 46.3867C276.924 47.2721 278.103 47.9622 279.418 48.457C280.746 48.9388 282.133 49.1797 283.578 49.1797C285.049 49.1797 286.495 48.8737 287.914 48.2617V49.6875C286.43 50.2474 284.971 50.5273 283.539 50.5273C281.286 50.5273 279.216 50.0195 277.328 49.0039C275.44 47.9883 273.93 46.5495 272.797 44.6875C271.664 42.8255 271.098 40.7422 271.098 38.4375C271.098 36.7969 271.41 35.2344 272.035 33.75C272.673 32.2656 273.533 30.9831 274.613 29.9023C275.694 28.8216 276.996 27.9622 278.52 27.3242C280.043 26.6862 281.658 26.3672 283.363 26.3672C285.746 26.3672 287.895 26.875 289.809 27.8906C291.736 28.9062 293.253 30.3516 294.359 32.2266C295.466 34.1016 296.02 36.237 296.02 38.6328ZM298.832 38.6328V52.5H297.426V38.6328C297.426 35.9766 296.807 33.6068 295.57 31.5234C294.333 29.4271 292.647 27.8125 290.512 26.6797C288.376 25.5339 285.993 24.9609 283.363 24.9609C280.837 24.9609 278.526 25.5664 276.43 26.7773C274.333 27.9883 272.686 29.6289 271.488 31.6992C270.29 33.7565 269.691 36.0026 269.691 38.4375C269.691 40.0391 269.945 41.5625 270.453 43.0078C270.974 44.4401 271.677 45.6966 272.562 46.7773C273.461 47.8451 274.49 48.7695 275.648 49.5508C276.82 50.332 278.077 50.9245 279.418 51.3281C280.772 51.7318 282.146 51.9336 283.539 51.9336C285.076 51.9336 286.534 51.6406 287.914 51.0547V52.5C286.469 53.0078 284.984 53.2617 283.461 53.2617C281.885 53.2617 280.349 53.0404 278.852 52.5977C277.367 52.1549 275.987 51.5039 274.711 50.6445C273.448 49.7721 272.335 48.75 271.371 47.5781C270.408 46.3932 269.652 45.013 269.105 43.4375C268.559 41.862 268.285 40.1953 268.285 38.4375C268.285 36.4193 268.663 34.4987 269.418 32.6758C270.186 30.8398 271.228 29.2578 272.543 27.9297C273.871 26.5885 275.473 25.5273 277.348 24.7461C279.236 23.9518 281.241 23.5547 283.363 23.5547C285.525 23.5547 287.556 23.9193 289.457 24.6484C291.358 25.3776 292.999 26.3932 294.379 27.6953C295.759 28.9844 296.846 30.5729 297.641 32.4609C298.435 34.349 298.832 36.4062 298.832 38.6328ZM312.934 39.0625H321.41C322.53 39.0625 323.48 38.7109 324.262 38.0078C325.043 37.3047 325.434 36.3151 325.434 35.0391C325.434 34.1016 325.023 33.2617 324.203 32.5195C323.396 31.7773 322.465 31.4062 321.41 31.4062H309.34V52.5H307.934V30H321.41C322.855 30 324.118 30.5078 325.199 31.5234C326.293 32.5391 326.84 33.7109 326.84 35.0391C326.84 36.6927 326.312 38.0143 325.258 39.0039C324.203 39.9805 322.921 40.4688 321.41 40.4688H312.934V39.0625ZM312.934 41.875H321.41C323.285 41.875 324.893 41.237 326.234 39.9609C327.576 38.6849 328.246 37.0443 328.246 35.0391C328.246 33.3333 327.562 31.8359 326.195 30.5469C324.828 29.2448 323.233 28.5938 321.41 28.5938H306.527V52.5H305.121V27.1875H321.41C323.624 27.1875 325.551 27.9753 327.191 29.5508C328.832 31.1133 329.652 32.9427 329.652 35.0391C329.652 37.3828 328.839 39.3424 327.211 40.918C325.596 42.4935 323.663 43.2812 321.41 43.2812H312.934V41.875ZM312.934 44.6875H321.41C323.142 44.6875 324.743 44.2708 326.215 43.4375C327.686 42.6042 328.858 41.4453 329.73 39.9609C330.616 38.4766 331.059 36.8359 331.059 35.0391C331.059 33.4115 330.622 31.888 329.75 30.4688C328.878 29.0365 327.693 27.8971 326.195 27.0508C324.711 26.2044 323.116 25.7812 321.41 25.7812H303.715V52.5H302.309V24.375H321.41C322.882 24.375 324.294 24.668 325.648 25.2539C327.016 25.8268 328.194 26.5951 329.184 27.5586C330.173 28.5091 330.967 29.6419 331.566 30.957C332.165 32.2721 332.465 33.6328 332.465 35.0391C332.465 37.3177 331.944 39.3099 330.902 41.0156C329.861 42.7083 328.461 43.9974 326.703 44.8828L329.652 52.5H328.148L325.355 45.4492C325.004 45.5664 324.594 45.6836 324.125 45.8008L326.762 52.5H325.258L322.68 46.0352C322.276 46.0742 321.853 46.0938 321.41 46.0938L323.891 52.5H322.406L319.945 46.0938H318.676L321.039 52.5H319.555L317.172 46.0938H312.934V44.6875ZM312.152 52.5H310.746V32.8125H321.41C322.139 32.8125 322.758 33.0339 323.266 33.4766C323.773 33.9062 324.027 34.4271 324.027 35.0391C324.027 36.7839 323.155 37.6562 321.41 37.6562H312.934V36.25H321.41C322.217 36.25 322.621 35.8464 322.621 35.0391C322.621 34.8177 322.497 34.6289 322.25 34.4727C322.016 34.3034 321.736 34.2188 321.41 34.2188H312.152V52.5Z" fill="black"/>
</svg>
