<svg width="1000" height="107" viewBox="0 0 1000 107" fill="none" xmlns="http://www.w3.org/2000/svg">
<path d="M99.8125 0.5H104.312V104H99.8125V0.5ZM0.8125 0.5H5.3125V104H0.8125V0.5ZM90.8125 0.5H95.3125V104H90.8125V0.5ZM81.8125 0.5H86.3125V104H81.8125V0.5ZM72.8125 0.5H77.3125V104H72.8125V63.4375H32.3125V104H27.8125V0.5H32.3125V40.9375H72.8125V0.5ZM18.8125 0.5H23.3125V104H18.8125V0.5ZM9.8125 0.5H14.3125V104H9.8125V0.5ZM72.8125 58.9375V54.4375H32.3125V58.9375H72.8125ZM72.8125 49.9375V45.4375H32.3125V49.9375H72.8125ZM138.688 104H134.188V14H138.688V104ZM129.688 104H125.188V14H129.688V104ZM120.688 104H116.188V14H120.688V104ZM147.688 81.5H190.75V86H147.688V90.5H190.75V95H147.688V99.5H190.75V104H143.188V14H190.75V18.5H147.688V23H190.75V27.5H147.688V32H190.75V36.5H147.688V47.6875H188.25V52.1875H147.688V56.6875H188.25V61.1875H147.688V65.6875H188.25V70.1875H147.688V81.5ZM242.938 61.1875H235.812C227.062 61.1875 220.333 59.4167 215.625 55.875C210.917 52.2917 208.562 47.375 208.562 41.125C208.562 35.2917 211.333 30.4375 216.875 26.5625C222.417 22.6458 230.188 20.6875 240.188 20.6875C246.854 20.6875 253.062 21.6042 258.812 23.4375C264.604 25.2708 269.417 27.8542 273.25 31.1875L269.75 34C266.333 31.2083 262.042 29.0417 256.875 27.5C251.708 25.9583 246.146 25.1875 240.188 25.1875C231.396 25.1875 224.667 26.6875 220 29.6875C215.375 32.6875 213.062 36.5 213.062 41.125C213.062 46.125 214.958 49.9792 218.75 52.6875C222.583 55.3542 228.271 56.6875 235.812 56.6875H242.688C251.562 56.6875 258.354 58.4792 263.062 62.0625C267.812 65.6042 270.188 70.5 270.188 76.75C270.188 82.5833 267.417 87.4583 261.875 91.375C256.333 95.25 248.562 97.1875 238.562 97.1875C231.896 97.1875 225.667 96.2708 219.875 94.4375C214.125 92.6042 209.333 90.0208 205.5 86.6875L209 83.875C212.417 86.6667 216.708 88.8333 221.875 90.375C227.042 91.9167 232.604 92.6875 238.562 92.6875C247.354 92.6875 254.062 91.1875 258.688 88.1875C263.354 85.1875 265.688 81.375 265.688 76.75C265.688 71.75 263.771 67.9167 259.938 65.25C256.146 62.5417 250.479 61.1875 242.938 61.1875ZM242.938 70.1875H235.812C224.229 70.1875 215.292 67.5625 209 62.3125C202.708 57.0208 199.562 49.9583 199.562 41.125C199.562 37.0833 200.458 33.2917 202.25 29.75C204.042 26.2083 206.604 23.1042 209.938 20.4375C213.312 17.7292 217.604 15.6042 222.812 14.0625C228.021 12.4792 233.812 11.6875 240.188 11.6875C248.229 11.6875 255.75 12.9167 262.75 15.375C269.75 17.7917 275.583 21.1875 280.25 25.5625L276.625 28.25C272.375 24.4167 267.062 21.4583 260.688 19.375C254.312 17.25 247.479 16.1875 240.188 16.1875C228.938 16.1875 220.104 18.5625 213.688 23.3125C207.271 28.0625 204.062 34 204.062 41.125C204.062 48.6667 206.812 54.6458 212.312 59.0625C217.812 63.4792 225.646 65.6875 235.812 65.6875H242.688C255.021 65.6875 261.188 69.375 261.188 76.75C261.188 80.0833 259.292 82.8333 255.5 85C251.75 87.125 246.104 88.1875 238.562 88.1875C233.271 88.1875 228.354 87.5833 223.812 86.375C219.271 85.125 215.521 83.3542 212.562 81.0625L216.125 78.3125C221.333 81.8958 228.812 83.6875 238.562 83.6875C244.812 83.6875 249.396 83.0417 252.312 81.75C255.229 80.4583 256.688 78.7917 256.688 76.75C256.688 74.375 255.667 72.6875 253.625 71.6875C251.583 70.6875 248.021 70.1875 242.938 70.1875ZM242.938 52.1875H235.812C223.646 52.1875 217.562 48.5 217.562 41.125C217.562 37.7917 219.438 35.0625 223.188 32.9375C226.979 30.7708 232.646 29.6875 240.188 29.6875C245.479 29.6875 250.396 30.3125 254.938 31.5625C259.479 32.7708 263.229 34.5208 266.188 36.8125L262.625 39.5625C257.417 35.9792 249.938 34.1875 240.188 34.1875C233.938 34.1875 229.354 34.8333 226.438 36.125C223.521 37.4167 222.062 39.0833 222.062 41.125C222.062 43.5 223.083 45.1875 225.125 46.1875C227.167 47.1875 230.729 47.6875 235.812 47.6875H242.938C254.521 47.6875 263.458 50.3333 269.75 55.625C276.042 60.875 279.188 67.9167 279.188 76.75C279.188 80.7917 278.292 84.5833 276.5 88.125C274.708 91.6667 272.125 94.7917 268.75 97.5C265.417 100.167 261.146 102.292 255.938 103.875C250.729 105.417 244.938 106.188 238.562 106.188C230.521 106.188 223 104.979 216 102.562C209 100.104 203.167 96.6875 198.5 92.3125L202.125 89.625C206.375 93.4583 211.688 96.4375 218.062 98.5625C224.438 100.646 231.271 101.688 238.562 101.688C249.812 101.688 258.646 99.3125 265.062 94.5625C271.479 89.8125 274.688 83.875 274.688 76.75C274.688 69.2083 271.938 63.2292 266.438 58.8125C260.938 54.3958 253.104 52.1875 242.938 52.1875ZM330.438 61.1875H323.312C314.562 61.1875 307.833 59.4167 303.125 55.875C298.417 52.2917 296.062 47.375 296.062 41.125C296.062 35.2917 298.833 30.4375 304.375 26.5625C309.917 22.6458 317.688 20.6875 327.688 20.6875C334.354 20.6875 340.562 21.6042 346.312 23.4375C352.104 25.2708 356.917 27.8542 360.75 31.1875L357.25 34C353.833 31.2083 349.542 29.0417 344.375 27.5C339.208 25.9583 333.646 25.1875 327.688 25.1875C318.896 25.1875 312.167 26.6875 307.5 29.6875C302.875 32.6875 300.562 36.5 300.562 41.125C300.562 46.125 302.458 49.9792 306.25 52.6875C310.083 55.3542 315.771 56.6875 323.312 56.6875H330.188C339.062 56.6875 345.854 58.4792 350.562 62.0625C355.312 65.6042 357.688 70.5 357.688 76.75C357.688 82.5833 354.917 87.4583 349.375 91.375C343.833 95.25 336.062 97.1875 326.062 97.1875C319.396 97.1875 313.167 96.2708 307.375 94.4375C301.625 92.6042 296.833 90.0208 293 86.6875L296.5 83.875C299.917 86.6667 304.208 88.8333 309.375 90.375C314.542 91.9167 320.104 92.6875 326.062 92.6875C334.854 92.6875 341.562 91.1875 346.188 88.1875C350.854 85.1875 353.188 81.375 353.188 76.75C353.188 71.75 351.271 67.9167 347.438 65.25C343.646 62.5417 337.979 61.1875 330.438 61.1875ZM330.438 70.1875H323.312C311.729 70.1875 302.792 67.5625 296.5 62.3125C290.208 57.0208 287.062 49.9583 287.062 41.125C287.062 37.0833 287.958 33.2917 289.75 29.75C291.542 26.2083 294.104 23.1042 297.438 20.4375C300.812 17.7292 305.104 15.6042 310.312 14.0625C315.521 12.4792 321.312 11.6875 327.688 11.6875C335.729 11.6875 343.25 12.9167 350.25 15.375C357.25 17.7917 363.083 21.1875 367.75 25.5625L364.125 28.25C359.875 24.4167 354.562 21.4583 348.188 19.375C341.812 17.25 334.979 16.1875 327.688 16.1875C316.438 16.1875 307.604 18.5625 301.188 23.3125C294.771 28.0625 291.562 34 291.562 41.125C291.562 48.6667 294.312 54.6458 299.812 59.0625C305.312 63.4792 313.146 65.6875 323.312 65.6875H330.188C342.521 65.6875 348.688 69.375 348.688 76.75C348.688 80.0833 346.792 82.8333 343 85C339.25 87.125 333.604 88.1875 326.062 88.1875C320.771 88.1875 315.854 87.5833 311.312 86.375C306.771 85.125 303.021 83.3542 300.062 81.0625L303.625 78.3125C308.833 81.8958 316.312 83.6875 326.062 83.6875C332.312 83.6875 336.896 83.0417 339.812 81.75C342.729 80.4583 344.188 78.7917 344.188 76.75C344.188 74.375 343.167 72.6875 341.125 71.6875C339.083 70.6875 335.521 70.1875 330.438 70.1875ZM330.438 52.1875H323.312C311.146 52.1875 305.062 48.5 305.062 41.125C305.062 37.7917 306.938 35.0625 310.688 32.9375C314.479 30.7708 320.146 29.6875 327.688 29.6875C332.979 29.6875 337.896 30.3125 342.438 31.5625C346.979 32.7708 350.729 34.5208 353.688 36.8125L350.125 39.5625C344.917 35.9792 337.438 34.1875 327.688 34.1875C321.438 34.1875 316.854 34.8333 313.938 36.125C311.021 37.4167 309.562 39.0833 309.562 41.125C309.562 43.5 310.583 45.1875 312.625 46.1875C314.667 47.1875 318.229 47.6875 323.312 47.6875H330.438C342.021 47.6875 350.958 50.3333 357.25 55.625C363.542 60.875 366.688 67.9167 366.688 76.75C366.688 80.7917 365.792 84.5833 364 88.125C362.208 91.6667 359.625 94.7917 356.25 97.5C352.917 100.167 348.646 102.292 343.438 103.875C338.229 105.417 332.438 106.188 326.062 106.188C318.021 106.188 310.5 104.979 303.5 102.562C296.5 100.104 290.667 96.6875 286 92.3125L289.625 89.625C293.875 93.4583 299.188 96.4375 305.562 98.5625C311.938 100.646 318.771 101.688 326.062 101.688C337.312 101.688 346.146 99.3125 352.562 94.5625C358.979 89.8125 362.188 83.875 362.188 76.75C362.188 69.2083 359.438 63.2292 353.938 58.8125C348.438 54.3958 340.604 52.1875 330.438 52.1875ZM440.438 59.625C440.438 54.2917 438.792 50.1667 435.5 47.25C432.208 44.3333 427.854 42.875 422.438 42.875C417.854 42.875 413.917 44.4583 410.625 47.625C407.333 50.7917 405.688 54.5833 405.688 59C405.688 61.5 406.021 63.75 406.688 65.75C407.354 67.7083 408.25 69.3542 409.375 70.6875C410.542 71.9792 411.917 73.0625 413.5 73.9375C415.083 74.7708 416.729 75.375 418.438 75.75C420.188 76.125 422.042 76.3125 424 76.3125C428.75 76.3125 433.083 75.1458 437 72.8125V77.3125C432.958 79.4375 428.604 80.5 423.938 80.5C420.938 80.5 418.104 80.1042 415.438 79.3125C412.812 78.4792 410.417 77.25 408.25 75.625C406.083 73.9583 404.354 71.7083 403.062 68.875C401.812 66 401.188 62.7083 401.188 59C401.188 53.25 403.208 48.375 407.25 44.375C411.292 40.375 416.354 38.375 422.438 38.375C429.146 38.375 434.562 40.2708 438.688 44.0625C442.854 47.8125 444.938 53 444.938 59.625V104H440.438V59.625ZM453.938 59.625V104H449.438V59.625C449.438 51.75 446.917 45.5 441.875 40.875C436.833 36.2083 430.354 33.875 422.438 33.875C415.104 33.875 408.979 36.3125 404.062 41.1875C399.146 46.0625 396.688 52 396.688 59C396.688 63.25 397.417 67.0625 398.875 70.4375C400.375 73.8125 402.396 76.5208 404.938 78.5625C407.479 80.6042 410.312 82.1667 413.438 83.25C416.604 84.2917 419.938 84.8125 423.438 84.8125C428.188 84.8125 432.708 83.7083 437 81.5V86.25C432.5 88.125 427.958 89.0625 423.375 89.0625C419.25 89.0625 415.333 88.4375 411.625 87.1875C407.917 85.8958 404.604 84.0417 401.688 81.625C398.771 79.1667 396.458 76 394.75 72.125C393.042 68.2083 392.188 63.8333 392.188 59C392.188 50.7917 395.083 43.8125 400.875 38.0625C406.708 32.2708 413.896 29.375 422.438 29.375C428.438 29.375 433.812 30.6042 438.562 33.0625C443.312 35.4792 447.062 39 449.812 43.625C452.562 48.25 453.938 53.5833 453.938 59.625ZM462.938 59.625V104H458.438V59.625C458.438 52.75 456.854 46.6667 453.688 41.375C450.562 36.0417 446.271 31.9583 440.812 29.125C435.354 26.2917 429.229 24.875 422.438 24.875C415.979 24.875 410.083 26.4167 404.75 29.5C399.417 32.5417 395.229 36.6667 392.188 41.875C389.188 47.0833 387.688 52.7917 387.688 59C387.688 64.3333 388.667 69.2083 390.625 73.625C392.583 78 395.208 81.6042 398.5 84.4375C401.833 87.2708 405.604 89.4792 409.812 91.0625C414.062 92.6042 418.5 93.375 423.125 93.375C427.833 93.375 432.458 92.3958 437 90.4375V95C432.25 96.7917 427.583 97.6875 423 97.6875C415.792 97.6875 409.167 96.0625 403.125 92.8125C397.083 89.5625 392.25 84.9583 388.625 79C385 73.0417 383.188 66.375 383.188 59C383.188 53.75 384.188 48.75 386.188 44C388.229 39.25 390.979 35.1458 394.438 31.6875C397.896 28.2292 402.062 25.4792 406.938 23.4375C411.812 21.3958 416.979 20.375 422.438 20.375C430.062 20.375 436.938 22 443.062 25.25C449.229 28.5 454.083 33.125 457.625 39.125C461.167 45.125 462.938 51.9583 462.938 59.625ZM471.938 59.625V104H467.438V59.625C467.438 51.125 465.458 43.5417 461.5 36.875C457.542 30.1667 452.146 25 445.312 21.375C438.479 17.7083 430.854 15.875 422.438 15.875C414.354 15.875 406.958 17.8125 400.25 21.6875C393.542 25.5625 388.271 30.8125 384.438 37.4375C380.604 44.0208 378.688 51.2083 378.688 59C378.688 64.125 379.5 69 381.125 73.625C382.792 78.2083 385.042 82.2292 387.875 85.6875C390.75 89.1042 394.042 92.0625 397.75 94.5625C401.5 97.0625 405.521 98.9583 409.812 100.25C414.146 101.542 418.542 102.188 423 102.188C427.917 102.188 432.583 101.25 437 99.375V104C432.375 105.625 427.625 106.438 422.75 106.438C417.708 106.438 412.792 105.729 408 104.312C403.25 102.896 398.833 100.812 394.75 98.0625C390.708 95.2708 387.146 92 384.062 88.25C380.979 84.4583 378.562 80.0417 376.812 75C375.062 69.9583 374.188 64.625 374.188 59C374.188 52.5417 375.396 46.3958 377.812 40.5625C380.271 34.6875 383.604 29.625 387.812 25.375C392.062 21.0833 397.188 17.6875 403.188 15.1875C409.229 12.6458 415.646 11.375 422.438 11.375C429.354 11.375 435.854 12.5417 441.938 14.875C448.021 17.2083 453.271 20.4583 457.688 24.625C462.104 28.75 465.583 33.8333 468.125 39.875C470.667 45.9167 471.938 52.5 471.938 59.625ZM553.562 58.5C553.521 58.5 553.5 58.5208 553.5 58.5625C555.5 60.6042 557.167 63.125 558.5 66.125C559.833 69.125 560.5 72.1667 560.5 75.25C560.5 81.9583 558.188 87.6042 553.562 92.1875C548.979 96.7292 543.479 99 537.062 99H508.625V103.5H537.062C542.146 103.5 546.771 102.396 550.938 100.188C555.146 97.9792 558.542 94.7083 561.125 90.375C563.708 86 565 80.9583 565 75.25C565 69.2917 563.208 63.8333 559.625 58.875C563.208 54.0833 565 48.3542 565 41.6875C565 36.8125 563.729 32.25 561.188 28C558.646 23.7083 555.208 20.3125 550.875 17.8125C546.583 15.2708 541.979 14 537.062 14H483.062V104H487.562V18.5H537.062C543.396 18.5 548.875 20.8125 553.5 25.4375C558.167 30.0208 560.5 35.4375 560.5 41.6875C560.5 48.2708 558.146 53.8542 553.438 58.4375L553.562 58.5ZM537.062 81C538.604 81 539.896 80.5 540.938 79.5C541.979 78.5 542.5 77.0833 542.5 75.25C542.5 73.75 541.938 72.4167 540.812 71.25C539.729 70.0833 538.479 69.5 537.062 69.5H508.562V65H537.062C539.688 65 542 66.0417 544 68.125C546 70.1667 547 72.5417 547 75.25C547 78.375 546.021 80.875 544.062 82.75C542.146 84.5833 539.812 85.5 537.062 85.5H508.625V81H537.062ZM537.062 90C541.021 90 544.417 88.625 547.25 85.875C550.083 83.125 551.5 79.5833 551.5 75.25C551.5 71.3333 550.042 67.8958 547.125 64.9375C544.25 61.9792 540.896 60.5 537.062 60.5H523.312H508.625V56H523.312H537.062C541.021 56 544.417 54.6667 547.25 52C550.083 49.2917 551.5 45.8542 551.5 41.6875C551.5 37.9375 550.042 34.6458 547.125 31.8125C544.25 28.9375 540.896 27.5 537.062 27.5H496.562V104H492.062V23H537.062C542.146 23 546.562 24.875 550.312 28.625C554.104 32.3333 556 36.6875 556 41.6875C556 45.3542 555.062 48.6667 553.188 51.625C551.354 54.5417 548.917 56.7917 545.875 58.375C548.917 60.0417 551.354 62.4167 553.188 65.5C555.062 68.5417 556 71.7917 556 75.25C556 80.7083 554.125 85.2917 550.375 89C546.667 92.6667 542.229 94.5 537.062 94.5H508.625V90H537.062ZM537.062 47C538.604 47 539.896 46.5417 540.938 45.625C541.979 44.7083 542.5 43.3958 542.5 41.6875C542.5 40.3542 541.938 39.1667 540.812 38.125C539.729 37.0417 538.479 36.5 537.062 36.5H505.562V104H501.062V32H537.062C539.688 32 542 32.9792 544 34.9375C546 36.8958 547 39.1458 547 41.6875C547 44.6875 546.042 47.0833 544.125 48.875C542.208 50.625 539.854 51.5 537.062 51.5H508.625V47H537.062ZM623.812 51.9375L621.562 56.875L594.562 0.5H599.062L623.812 51.9375ZM628.312 42.0625L626 47L603.562 0.5H608.062L628.312 42.0625ZM632.812 32.25L630.562 37.1875L612.562 0.5H617.062L632.812 32.25ZM627.125 69.125L659.688 0.5H664.188L631.625 69.125V104H627.125V69.125ZM636.125 69.125L668.688 0.5H673.188L640.625 69.125V104H636.125V69.125ZM645.125 69.125L677.688 0.5H682.188L649.625 69.125V104H645.125V69.125ZM620.375 64.375L650.688 0.5H655.188L622.625 69.125V104H618.125V69.125L585.562 0.5H590.062L620.375 64.375ZM754.062 59.625C754.062 54.2917 752.417 50.1667 749.125 47.25C745.833 44.3333 741.479 42.875 736.062 42.875C731.479 42.875 727.542 44.4583 724.25 47.625C720.958 50.7917 719.312 54.5833 719.312 59C719.312 61.5 719.646 63.75 720.312 65.75C720.979 67.7083 721.875 69.3542 723 70.6875C724.167 71.9792 725.542 73.0625 727.125 73.9375C728.708 74.7708 730.354 75.375 732.062 75.75C733.812 76.125 735.667 76.3125 737.625 76.3125C742.375 76.3125 746.708 75.1458 750.625 72.8125V77.3125C746.583 79.4375 742.229 80.5 737.562 80.5C734.562 80.5 731.729 80.1042 729.062 79.3125C726.438 78.4792 724.042 77.25 721.875 75.625C719.708 73.9583 717.979 71.7083 716.688 68.875C715.438 66 714.812 62.7083 714.812 59C714.812 53.25 716.833 48.375 720.875 44.375C724.917 40.375 729.979 38.375 736.062 38.375C742.771 38.375 748.188 40.2708 752.312 44.0625C756.479 47.8125 758.562 53 758.562 59.625V104H754.062V59.625ZM767.562 59.625V104H763.062V59.625C763.062 51.75 760.542 45.5 755.5 40.875C750.458 36.2083 743.979 33.875 736.062 33.875C728.729 33.875 722.604 36.3125 717.688 41.1875C712.771 46.0625 710.312 52 710.312 59C710.312 63.25 711.042 67.0625 712.5 70.4375C714 73.8125 716.021 76.5208 718.562 78.5625C721.104 80.6042 723.938 82.1667 727.062 83.25C730.229 84.2917 733.562 84.8125 737.062 84.8125C741.812 84.8125 746.333 83.7083 750.625 81.5V86.25C746.125 88.125 741.583 89.0625 737 89.0625C732.875 89.0625 728.958 88.4375 725.25 87.1875C721.542 85.8958 718.229 84.0417 715.312 81.625C712.396 79.1667 710.083 76 708.375 72.125C706.667 68.2083 705.812 63.8333 705.812 59C705.812 50.7917 708.708 43.8125 714.5 38.0625C720.333 32.2708 727.521 29.375 736.062 29.375C742.062 29.375 747.438 30.6042 752.188 33.0625C756.938 35.4792 760.688 39 763.438 43.625C766.188 48.25 767.562 53.5833 767.562 59.625ZM776.562 59.625V104H772.062V59.625C772.062 52.75 770.479 46.6667 767.312 41.375C764.188 36.0417 759.896 31.9583 754.438 29.125C748.979 26.2917 742.854 24.875 736.062 24.875C729.604 24.875 723.708 26.4167 718.375 29.5C713.042 32.5417 708.854 36.6667 705.812 41.875C702.812 47.0833 701.312 52.7917 701.312 59C701.312 64.3333 702.292 69.2083 704.25 73.625C706.208 78 708.833 81.6042 712.125 84.4375C715.458 87.2708 719.229 89.4792 723.438 91.0625C727.688 92.6042 732.125 93.375 736.75 93.375C741.458 93.375 746.083 92.3958 750.625 90.4375V95C745.875 96.7917 741.208 97.6875 736.625 97.6875C729.417 97.6875 722.792 96.0625 716.75 92.8125C710.708 89.5625 705.875 84.9583 702.25 79C698.625 73.0417 696.812 66.375 696.812 59C696.812 53.75 697.812 48.75 699.812 44C701.854 39.25 704.604 35.1458 708.062 31.6875C711.521 28.2292 715.688 25.4792 720.562 23.4375C725.438 21.3958 730.604 20.375 736.062 20.375C743.688 20.375 750.562 22 756.688 25.25C762.854 28.5 767.708 33.125 771.25 39.125C774.792 45.125 776.562 51.9583 776.562 59.625ZM785.562 59.625V104H781.062V59.625C781.062 51.125 779.083 43.5417 775.125 36.875C771.167 30.1667 765.771 25 758.938 21.375C752.104 17.7083 744.479 15.875 736.062 15.875C727.979 15.875 720.583 17.8125 713.875 21.6875C707.167 25.5625 701.896 30.8125 698.062 37.4375C694.229 44.0208 692.312 51.2083 692.312 59C692.312 64.125 693.125 69 694.75 73.625C696.417 78.2083 698.667 82.2292 701.5 85.6875C704.375 89.1042 707.667 92.0625 711.375 94.5625C715.125 97.0625 719.146 98.9583 723.438 100.25C727.771 101.542 732.167 102.188 736.625 102.188C741.542 102.188 746.208 101.25 750.625 99.375V104C746 105.625 741.25 106.438 736.375 106.438C731.333 106.438 726.417 105.729 721.625 104.312C716.875 102.896 712.458 100.812 708.375 98.0625C704.333 95.2708 700.771 92 697.688 88.25C694.604 84.4583 692.188 80.0417 690.438 75C688.688 69.9583 687.812 64.625 687.812 59C687.812 52.5417 689.021 46.3958 691.438 40.5625C693.896 34.6875 697.229 29.625 701.438 25.375C705.688 21.0833 710.812 17.6875 716.812 15.1875C722.854 12.6458 729.271 11.375 736.062 11.375C742.979 11.375 749.479 12.5417 755.562 14.875C761.646 17.2083 766.896 20.4583 771.312 24.625C775.729 28.75 779.208 33.8333 781.75 39.875C784.292 45.9167 785.562 52.5 785.562 59.625ZM860.562 59.625C860.562 54.2917 858.917 50.1667 855.625 47.25C852.333 44.3333 847.979 42.875 842.562 42.875C837.979 42.875 834.042 44.4583 830.75 47.625C827.458 50.7917 825.812 54.5833 825.812 59C825.812 61.5 826.146 63.75 826.812 65.75C827.479 67.7083 828.375 69.3542 829.5 70.6875C830.667 71.9792 832.042 73.0625 833.625 73.9375C835.208 74.7708 836.854 75.375 838.562 75.75C840.312 76.125 842.167 76.3125 844.125 76.3125C848.875 76.3125 853.208 75.1458 857.125 72.8125V77.3125C853.083 79.4375 848.729 80.5 844.062 80.5C841.062 80.5 838.229 80.1042 835.562 79.3125C832.938 78.4792 830.542 77.25 828.375 75.625C826.208 73.9583 824.479 71.7083 823.188 68.875C821.938 66 821.312 62.7083 821.312 59C821.312 53.25 823.333 48.375 827.375 44.375C831.417 40.375 836.479 38.375 842.562 38.375C849.271 38.375 854.688 40.2708 858.812 44.0625C862.979 47.8125 865.062 53 865.062 59.625V104H860.562V59.625ZM874.062 59.625V104H869.562V59.625C869.562 51.75 867.042 45.5 862 40.875C856.958 36.2083 850.479 33.875 842.562 33.875C835.229 33.875 829.104 36.3125 824.188 41.1875C819.271 46.0625 816.812 52 816.812 59C816.812 63.25 817.542 67.0625 819 70.4375C820.5 73.8125 822.521 76.5208 825.062 78.5625C827.604 80.6042 830.438 82.1667 833.562 83.25C836.729 84.2917 840.062 84.8125 843.562 84.8125C848.312 84.8125 852.833 83.7083 857.125 81.5V86.25C852.625 88.125 848.083 89.0625 843.5 89.0625C839.375 89.0625 835.458 88.4375 831.75 87.1875C828.042 85.8958 824.729 84.0417 821.812 81.625C818.896 79.1667 816.583 76 814.875 72.125C813.167 68.2083 812.312 63.8333 812.312 59C812.312 50.7917 815.208 43.8125 821 38.0625C826.833 32.2708 834.021 29.375 842.562 29.375C848.562 29.375 853.938 30.6042 858.688 33.0625C863.438 35.4792 867.188 39 869.938 43.625C872.688 48.25 874.062 53.5833 874.062 59.625ZM883.062 59.625V104H878.562V59.625C878.562 52.75 876.979 46.6667 873.812 41.375C870.688 36.0417 866.396 31.9583 860.938 29.125C855.479 26.2917 849.354 24.875 842.562 24.875C836.104 24.875 830.208 26.4167 824.875 29.5C819.542 32.5417 815.354 36.6667 812.312 41.875C809.312 47.0833 807.812 52.7917 807.812 59C807.812 64.3333 808.792 69.2083 810.75 73.625C812.708 78 815.333 81.6042 818.625 84.4375C821.958 87.2708 825.729 89.4792 829.938 91.0625C834.188 92.6042 838.625 93.375 843.25 93.375C847.958 93.375 852.583 92.3958 857.125 90.4375V95C852.375 96.7917 847.708 97.6875 843.125 97.6875C835.917 97.6875 829.292 96.0625 823.25 92.8125C817.208 89.5625 812.375 84.9583 808.75 79C805.125 73.0417 803.312 66.375 803.312 59C803.312 53.75 804.312 48.75 806.312 44C808.354 39.25 811.104 35.1458 814.562 31.6875C818.021 28.2292 822.188 25.4792 827.062 23.4375C831.938 21.3958 837.104 20.375 842.562 20.375C850.188 20.375 857.062 22 863.188 25.25C869.354 28.5 874.208 33.125 877.75 39.125C881.292 45.125 883.062 51.9583 883.062 59.625ZM892.062 59.625V104H887.562V59.625C887.562 51.125 885.583 43.5417 881.625 36.875C877.667 30.1667 872.271 25 865.438 21.375C858.604 17.7083 850.979 15.875 842.562 15.875C834.479 15.875 827.083 17.8125 820.375 21.6875C813.667 25.5625 808.396 30.8125 804.562 37.4375C800.729 44.0208 798.812 51.2083 798.812 59C798.812 64.125 799.625 69 801.25 73.625C802.917 78.2083 805.167 82.2292 808 85.6875C810.875 89.1042 814.167 92.0625 817.875 94.5625C821.625 97.0625 825.646 98.9583 829.938 100.25C834.271 101.542 838.667 102.188 843.125 102.188C848.042 102.188 852.708 101.25 857.125 99.375V104C852.5 105.625 847.75 106.438 842.875 106.438C837.833 106.438 832.917 105.729 828.125 104.312C823.375 102.896 818.958 100.812 814.875 98.0625C810.833 95.2708 807.271 92 804.188 88.25C801.104 84.4583 798.688 80.0417 796.938 75C795.188 69.9583 794.312 64.625 794.312 59C794.312 52.5417 795.521 46.3958 797.938 40.5625C800.396 34.6875 803.729 29.625 807.938 25.375C812.188 21.0833 817.312 17.6875 823.312 15.1875C829.354 12.6458 835.771 11.375 842.562 11.375C849.479 11.375 855.979 12.5417 862.062 14.875C868.146 17.2083 873.396 20.4583 877.812 24.625C882.229 28.75 885.708 33.8333 888.25 39.875C890.792 45.9167 892.062 52.5 892.062 59.625ZM937.188 61H964.312C967.896 61 970.938 59.875 973.438 57.625C975.938 55.375 977.188 52.2083 977.188 48.125C977.188 45.125 975.875 42.4375 973.25 40.0625C970.667 37.6875 967.688 36.5 964.312 36.5H925.688V104H921.188V32H964.312C968.938 32 972.979 33.625 976.438 36.875C979.938 40.125 981.688 43.875 981.688 48.125C981.688 53.4167 980 57.6458 976.625 60.8125C973.25 63.9375 969.146 65.5 964.312 65.5H937.188V61ZM937.188 70H964.312C970.312 70 975.458 67.9583 979.75 63.875C984.042 59.7917 986.188 54.5417 986.188 48.125C986.188 42.6667 984 37.875 979.625 33.75C975.25 29.5833 970.146 27.5 964.312 27.5H916.688V104H912.188V23H964.312C971.396 23 977.562 25.5208 982.812 30.5625C988.062 35.5625 990.688 41.4167 990.688 48.125C990.688 55.625 988.083 61.8958 982.875 66.9375C977.708 71.9792 971.521 74.5 964.312 74.5H937.188V70ZM937.188 79H964.312C969.854 79 974.979 77.6667 979.688 75C984.396 72.3333 988.146 68.625 990.938 63.875C993.771 59.125 995.188 53.875 995.188 48.125C995.188 42.9167 993.792 38.0417 991 33.5C988.208 28.9167 984.417 25.2708 979.625 22.5625C974.875 19.8542 969.771 18.5 964.312 18.5H907.688V104H903.188V14H964.312C969.021 14 973.542 14.9375 977.875 16.8125C982.25 18.6458 986.021 21.1042 989.188 24.1875C992.354 27.2292 994.896 30.8542 996.812 35.0625C998.729 39.2708 999.688 43.625 999.688 48.125C999.688 55.4167 998.021 61.7917 994.688 67.25C991.354 72.6667 986.875 76.7917 981.25 79.625L990.688 104H985.875L976.938 81.4375C975.812 81.8125 974.5 82.1875 973 82.5625L981.438 104H976.625L968.375 83.3125C967.083 83.4375 965.729 83.5 964.312 83.5L972.25 104H967.5L959.625 83.5H955.562L963.125 104H958.375L950.75 83.5H937.188V79ZM934.688 104H930.188V41H964.312C966.646 41 968.625 41.7083 970.25 43.125C971.875 44.5 972.688 46.1667 972.688 48.125C972.688 53.7083 969.896 56.5 964.312 56.5H937.188V52H964.312C966.896 52 968.188 50.7083 968.188 48.125C968.188 47.4167 967.792 46.8125 967 46.3125C966.25 45.7708 965.354 45.5 964.312 45.5H934.688V104Z" fill="white"/>
</svg>
